<svg id="SvgjsSvg1016" width="288" height="288" xmlns="http://www.w3.org/2000/svg" version="1.1" xmlns:xlink="http://www.w3.org/1999/xlink" xmlns:svgjs="http://svgjs.com/svgjs"><defs id="SvgjsDefs1017"></defs><g id="SvgjsG1018"><svg xmlns="http://www.w3.org/2000/svg" enable-background="new 0 0 58 58" viewBox="0 0 58 58" width="288" height="288"><path d="M0 28h28V0H0V28zM8 12h4V8c0-1.104.896-2 2-2s2 .896 2 2v4h4c1.104 0 2 .896 2 2s-.896 2-2 2h-4v4c0 1.104-.896 2-2 2s-2-.896-2-2v-4H8c-1.104 0-2-.896-2-2S6.896 12 8 12zM30 0v28h28V0H30zM50 16H38c-1.104 0-2-.896-2-2s.896-2 2-2h12c1.104 0 2 .896 2 2S51.104 16 50 16zM30 58h28V30H30V58zM38 39h12c1.104 0 2 .896 2 2s-.896 2-2 2H38c-1.104 0-2-.896-2-2S36.896 39 38 39zM38 45h12c1.104 0 2 .896 2 2s-.896 2-2 2H38c-1.104 0-2-.896-2-2S36.896 45 38 45zM0 58h28V30H0V58zM7.586 40.414c-.781-.781-.781-2.047 0-2.828.78-.781 2.048-.781 2.828 0L14 41.172l3.586-3.586c.78-.781 2.048-.781 2.828 0 .781.781.781 2.047 0 2.828L16.828 44l3.586 3.586c.781.781.781 2.047 0 2.828C20.024 50.805 19.512 51 19 51s-1.024-.195-1.414-.586L14 46.828l-3.586 3.586C10.024 50.805 9.512 51 9 51s-1.024-.195-1.414-.586c-.781-.781-.781-2.047 0-2.828L11.172 44 7.586 40.414z" fill="#ffffff" class="color000 svgShape"></path></svg></g></svg>